<svg width="25" height="25" viewBox="0 0 25 25" fill="none" xmlns="http://www.w3.org/2000/svg">
<path d="M10.4993 15.2871C10.5923 15.3808 10.7029 15.4552 10.8247 15.506C10.9466 15.5568 11.0773 15.5829 11.2093 15.5829C11.3413 15.5829 11.472 15.5568 11.5939 15.506C11.7157 15.4552 11.8263 15.3808 11.9193 15.2871L15.9993 11.2071C16.1876 11.0188 16.2934 10.7634 16.2934 10.4971C16.2934 10.2308 16.1876 9.97541 15.9993 9.78711C15.811 9.59881 15.5556 9.49302 15.2893 9.49302C15.023 9.49302 14.7676 9.59881 14.5793 9.78711L11.2093 13.1671L9.99931 11.9471C9.811 11.7588 9.55561 11.653 9.28931 11.653C9.02301 11.653 8.76761 11.7588 8.57931 11.9471C8.391 12.1354 8.28521 12.3908 8.28521 12.6571C8.28521 12.9234 8.391 13.1788 8.57931 13.3671L10.4993 15.2871ZM21.2893 2.53711H3.28931C3.02409 2.53711 2.76974 2.64247 2.5822 2.83C2.39466 3.01754 2.28931 3.27189 2.28931 3.53711V21.5371C2.28931 21.8023 2.39466 22.0567 2.5822 22.2442C2.76974 22.4318 3.02409 22.5371 3.28931 22.5371H21.2893C21.5545 22.5371 21.8089 22.4318 21.9964 22.2442C22.184 22.0567 22.2893 21.8023 22.2893 21.5371V3.53711C22.2893 3.27189 22.184 3.01754 21.9964 2.83C21.8089 2.64247 21.5545 2.53711 21.2893 2.53711ZM20.2893 20.5371H4.28931V4.53711H20.2893V20.5371Z" fill="#008DD2"/>
</svg>
