<svg width="73" height="15" viewBox="0 0 73 15" fill="none" xmlns="http://www.w3.org/2000/svg">
<g clip-path="url(#clip0_35_298)">
<path fill-rule="evenodd" clip-rule="evenodd" d="M47.6926 7.71475C47.7353 7.99475 47.7566 8.21013 47.8206 8.42552C48.2898 10.4286 49.8467 11.764 51.8727 11.9363C53.6642 12.0871 55.0718 11.3978 56.1168 9.91167C56.6287 9.2009 57.4604 9.07167 58.1216 9.65321C58.5054 9.97628 58.5481 10.4071 58.2495 10.8163C58.0789 11.0317 57.9296 11.2471 57.759 11.484C57.0765 12.4317 56.1808 13.0778 55.0718 13.4655C53.2803 14.0901 51.4888 14.1763 49.7187 13.5086C47.3301 12.6255 45.9225 10.8594 45.5173 8.33936C45.2827 6.78859 45.432 5.23782 46.1358 3.83782C47.1595 1.83475 48.759 0.607055 50.977 0.240901C52.4486 0.00397813 53.8988 0.154747 55.2637 0.82244C57.2045 1.74859 58.3775 3.3209 58.8254 5.41013C58.9533 5.99167 58.996 6.57321 59.0386 7.15475C59.0813 7.5209 58.9107 7.67167 58.5481 7.69321C58.3775 7.69321 58.2282 7.69321 58.0576 7.69321C54.7519 7.69321 51.4462 7.69321 48.1618 7.69321C48.0125 7.71475 47.9059 7.71475 47.6926 7.71475ZM56.714 5.51782C56.4367 3.64398 54.1974 2.00705 52.1287 2.13629C49.9746 2.26552 47.8419 3.92398 47.7566 5.51782C50.7211 5.51782 53.7282 5.51782 56.714 5.51782Z" fill="#9D9E9E"/>
<path fill-rule="evenodd" clip-rule="evenodd" d="M30.759 7.65023C30.7803 7.84408 30.8017 7.97331 30.823 8.12408C31.2282 10.3425 33.0197 11.8718 35.2377 11.9148C36.9225 11.9364 38.2235 11.2472 39.2045 9.86869C39.7163 9.13639 40.6334 9.05023 41.2732 9.69639C41.5718 10.0195 41.6358 10.4072 41.3372 10.7948C41.2092 10.9887 41.0813 11.161 40.932 11.3118C40.2069 12.3887 39.2045 13.0779 37.9889 13.4872C36.1974 14.0902 34.4059 14.1333 32.6784 13.4441C30.2045 12.4748 28.8182 10.5579 28.5197 7.88716C28.3704 6.59485 28.4983 5.34562 29.0315 4.161C30.0765 1.921 31.7614 0.542538 34.214 0.219461C35.5149 0.0471535 36.8159 0.154846 38.0102 0.650231C40.1855 1.55485 41.4438 3.25638 41.9344 5.561C42.0197 6.07792 42.0836 6.63792 42.105 7.15485C42.1263 7.58562 42.041 7.67177 41.5931 7.67177C40.8254 7.67177 40.0149 7.67177 39.2258 7.67177C36.5813 7.67177 33.9367 7.67177 31.3348 7.67177C31.1429 7.65023 30.9723 7.65023 30.759 7.65023ZM39.823 5.45331C39.5457 3.601 37.3704 2.02869 35.2377 2.07177C33.169 2.11485 31.0149 3.79485 30.8443 5.45331C33.8301 5.45331 36.7945 5.45331 39.823 5.45331Z" fill="#9D9E9E"/>
<path fill-rule="evenodd" clip-rule="evenodd" d="M67.868 8.64094C68.0386 8.79171 68.124 8.87787 68.2306 8.96402C69.3822 9.95479 70.5339 10.9456 71.6642 11.9363C71.7282 12.0009 71.8349 12.0871 71.8988 12.1517C72.3254 12.5825 72.368 13.2071 71.9628 13.6379C71.5789 14.0686 70.9818 14.1333 70.5339 13.7671C69.7235 13.0994 68.9557 12.4102 68.1666 11.7425C67.0363 10.7733 65.9273 9.80402 64.7969 8.83479C64.7116 8.74864 64.5837 8.66248 64.413 8.53325C64.413 8.77017 64.3917 8.92094 64.3917 9.07171C64.3917 11.8071 64.3917 9.76094 64.3917 12.4963C64.3917 12.6256 64.3917 12.7548 64.3917 12.884C64.3491 13.4871 63.9012 13.9179 63.304 13.8748C62.7282 13.8533 62.3443 13.4225 62.323 12.8194C62.323 12.6902 62.323 12.5609 62.323 12.4317C62.323 7.02556 62.323 6.40094 62.323 0.994789C62.323 0.822482 62.323 0.671712 62.323 0.499405C62.323 0.111712 62.3657 0.0470969 62.7282 0.0470969C63.2187 0.0255584 63.7093 0.0255584 64.1998 0.0255584C65.3728 0.0255584 66.5884 0.0686354 67.7614 0.00401999C69.7448 -0.0821339 71.9628 1.53325 72.1761 3.88094C72.368 5.99171 70.9391 7.99479 68.8064 8.42556C68.5292 8.49017 68.2306 8.57633 67.868 8.64094ZM64.2638 6.98248C64.3917 7.00402 64.477 7.00402 64.541 7.00402C65.5221 7.00402 66.5244 7.00402 67.5055 7.00402C67.7827 7.00402 68.0813 6.98248 68.3586 6.87479C69.2756 6.59479 70.0007 6.03479 70.2353 5.04402C70.6405 3.34248 69.3823 1.79171 67.6548 1.79171C66.6311 1.79171 65.6287 1.79171 64.5837 1.79171C64.4557 1.79171 64.3491 1.81325 64.2211 1.81325C64.2638 3.53633 64.2638 5.23787 64.2638 6.98248Z" fill="#9D9E9E"/>
<path fill-rule="evenodd" clip-rule="evenodd" d="M23.0813 7.67171C21.1192 7.67171 19.2211 7.67171 17.2803 7.67171C17.2803 7.84402 17.259 7.99479 17.259 8.14556C17.259 9.65325 17.259 11.1394 17.259 12.6471C17.259 12.8409 17.259 13.0348 17.2163 13.1856C17.067 13.6379 16.5979 13.9179 16.15 13.8963C15.6595 13.8532 15.2543 13.4656 15.1903 12.9702C15.1689 12.8409 15.1903 12.7332 15.1903 12.604C15.1903 7.24094 15.1689 6.59479 15.1689 1.25325C15.1689 1.03787 15.1903 0.822482 15.2543 0.628636C15.4249 0.176328 15.8941 -0.0821336 16.3846 -0.0175182C16.8325 0.0470972 17.2163 0.434789 17.259 0.908635C17.2803 1.0594 17.259 1.18864 17.259 1.3394C17.259 4.09633 17.2803 2.13633 17.2803 4.89325C17.2803 5.06556 17.3016 5.21633 17.3016 5.3671C17.6642 5.45325 22.6974 5.45325 23.0813 5.3671C23.0813 5.23787 23.1026 5.10863 23.1026 4.95787C23.1026 3.75171 23.1026 2.52402 23.1026 1.31787C23.1026 1.18864 23.1026 1.08094 23.1026 0.951712C23.1452 0.413251 23.5505 0.00402028 24.0836 -0.0175182C24.6168 -0.0390566 25.1073 0.370174 25.1713 0.908635C25.1926 1.03787 25.1713 1.14556 25.1713 1.27479C25.1713 5.04402 25.1713 8.79171 25.1713 12.5609C25.1713 12.6902 25.1713 12.7979 25.1713 12.9271C25.1073 13.4656 24.6381 13.8963 24.105 13.8748C23.5718 13.8532 23.1452 13.4225 23.0813 12.884C23.0813 12.7548 23.0813 12.6471 23.0813 12.5179C23.0813 11.0748 23.0813 9.58863 23.0813 8.14556C23.0813 8.01633 23.0813 7.86556 23.0813 7.67171Z" fill="#9D9E9E"/>
<path fill-rule="evenodd" clip-rule="evenodd" d="M6.10501 13.9824C4.71876 13.9609 3.41781 13.6593 2.2235 12.927C1.71165 12.6255 1.24246 12.2378 0.858569 11.7855C0.666626 11.5486 0.432029 11.3117 0.346721 11.0101C0.218759 10.6224 0.197431 10.1917 0.559991 9.84704C0.965204 9.45934 1.51971 9.30857 2.07421 9.67473C2.60738 10.0624 2.86331 10.5578 3.31118 11.0101C3.95099 11.6563 4.78274 12.0009 5.67847 12.1086C6.51023 12.1947 7.32065 12.1732 8.13108 11.8932C8.45098 11.764 8.79222 11.6132 9.06947 11.3978C9.58132 10.8163 9.73061 9.99781 9.11212 9.43781C8.81354 9.17934 8.42966 8.9855 8.04577 8.81319C7.10738 8.40396 6.12634 8.12396 5.1453 7.8655C4.33487 7.67165 3.5671 7.41319 2.75667 7.17627C2.45809 7.09011 2.15952 6.91781 1.88227 6.76704C1.13582 6.35781 0.70928 5.71165 0.581318 4.89319C0.346721 3.19165 0.965204 1.66242 2.43677 0.908576C4.74009 -0.232963 7.12871 -0.12527 9.43203 1.18858C9.85857 1.4255 10.2638 1.79165 10.6263 2.11473C10.9036 2.35165 11.1169 2.69627 11.2235 3.06242C11.3301 3.51473 11.1169 3.98858 10.5624 4.11781C10.0932 4.2255 9.66663 4.07473 9.32539 3.70858C9.26141 3.64396 9.19743 3.55781 9.15478 3.49319C8.6216 2.67473 7.8325 2.22242 6.89411 2.05011C5.95573 1.87781 5.01734 1.89934 4.1216 2.2655C3.8017 2.39473 3.46046 2.56704 3.20454 2.80396C2.82065 3.32088 2.67137 4.01011 3.18321 4.65627C3.58843 5.04396 4.05762 5.25934 4.56947 5.36704C5.6998 5.64704 6.85146 5.94858 7.98179 6.22858C8.70691 6.42242 9.4107 6.65934 10.0718 7.04704C10.9249 7.49934 11.5434 8.16704 11.7567 9.13627C12.0126 10.3209 11.7567 11.4409 10.8396 12.3024C9.79459 13.2501 8.60028 13.767 7.21402 13.9178C6.83013 13.9609 6.44625 13.9609 6.10501 13.9824Z" fill="#9D9E9E"/>
</g>
<defs>
<clipPath id="clip0_35_298">
<rect width="72" height="14" fill="white" transform="translate(0.240112 0.00390625)"/>
</clipPath>
</defs>
</svg>
