<svg width="21" height="23" viewBox="0 0 21 23" fill="none" xmlns="http://www.w3.org/2000/svg">
<path fill-rule="evenodd" clip-rule="evenodd" d="M20.125 6.46875V20.125C20.125 20.8875 19.8221 21.6188 19.2829 22.1579C18.7438 22.6971 18.0125 23 17.25 23V21.5625C17.6312 21.5625 17.9969 21.4111 18.2665 21.1415C18.536 20.8719 18.6875 20.5063 18.6875 20.125V6.46875H15.8125C15.2406 6.46875 14.6922 6.24158 14.2878 5.8372C13.8834 5.43282 13.6562 4.88437 13.6562 4.3125V1.4375H5.75C5.36875 1.4375 5.00312 1.58895 4.73353 1.85853C4.46395 2.12812 4.3125 2.49375 4.3125 2.875V15.8125H2.875V2.875C2.875 2.1125 3.1779 1.38124 3.71707 0.842068C4.25624 0.302901 4.9875 0 5.75 0L13.6562 0L20.125 6.46875ZM8.85644 19.6449V20.3953C8.85644 20.7633 8.80037 21.0709 8.68825 21.3167C8.59283 21.5441 8.43165 21.7378 8.22538 21.873C8.02218 21.9956 7.78849 22.0584 7.55119 22.0541C7.31297 22.0585 7.07834 21.9957 6.87413 21.873C6.66955 21.7373 6.50954 21.5443 6.41412 21.3181C6.29321 21.0259 6.23587 20.7113 6.24594 20.3953V19.6449C6.24594 19.2754 6.30344 18.9678 6.41412 18.7234C6.5093 18.4967 6.66933 18.3032 6.87413 18.1671C7.07742 18.0418 7.3124 17.9774 7.55119 17.9817C7.80419 17.9817 8.02844 18.0435 8.22538 18.1686C8.43143 18.3034 8.59259 18.4966 8.68825 18.7234C8.80037 18.9678 8.85644 19.2754 8.85644 19.6449ZM10.0108 20.3909V19.6535C10.0108 19.1116 9.913 18.6473 9.71606 18.2563C9.53147 17.876 9.23636 17.5604 8.86938 17.3506C8.50425 17.1393 8.06437 17.0344 7.55119 17.0344C7.04087 17.0344 6.59956 17.1393 6.22869 17.3506C5.86127 17.5578 5.56588 17.8723 5.382 18.2519C5.1865 18.6415 5.08731 19.1087 5.08731 19.6535V20.3909C5.08731 20.93 5.1865 21.3972 5.382 21.7896C5.57894 22.1792 5.86069 22.4796 6.23012 22.6909C6.59956 22.8979 7.04088 23.0014 7.55263 23.0014C8.06581 23.0014 8.50425 22.8979 8.86938 22.6909C9.23738 22.4796 9.51912 22.1792 9.7175 21.7896C9.913 21.3958 10.0108 20.93 10.0108 20.3909ZM0 17.1436V22.8936H2.09731C2.67519 22.8936 3.15387 22.7786 3.53338 22.5515C3.91741 22.3217 4.2173 21.9745 4.38869 21.5611C4.57556 21.1298 4.67044 20.6094 4.67044 20.0028C4.67044 19.3991 4.577 18.8844 4.38869 18.4575C4.21895 18.0486 3.92141 17.7057 3.54056 17.48C3.1625 17.2558 2.68094 17.1436 2.09731 17.1436H0ZM1.13706 18.0708H1.94638C2.30288 18.0708 2.59325 18.1427 2.82181 18.2893C3.05906 18.4445 3.23805 18.674 3.33069 18.9419C3.44425 19.2309 3.50031 19.5917 3.50031 20.0244C3.50477 20.3111 3.47191 20.5971 3.40256 20.8754C3.35131 21.0948 3.2554 21.3013 3.12081 21.482C2.99574 21.6432 2.83003 21.7682 2.64069 21.8443C2.41883 21.9273 2.1832 21.9673 1.94638 21.9621H1.13563V18.0694L1.13706 18.0708ZM11.8062 18.7651C11.7006 19.0566 11.6504 19.3652 11.6581 19.6751V20.3866C11.6581 20.7403 11.707 21.0407 11.8062 21.2879C11.8888 21.5151 12.0381 21.7121 12.2346 21.8529C12.4396 21.9829 12.679 22.0485 12.9217 22.0412C13.1212 22.0457 13.3189 22.0023 13.4981 21.9147C13.6585 21.8331 13.794 21.71 13.8906 21.5582C13.9881 21.3999 14.0458 21.2204 14.0587 21.0349H15.1584V21.1442C15.1447 21.4915 15.032 21.8277 14.8336 22.1131C14.6366 22.3919 14.3736 22.609 14.0429 22.7657C13.6887 22.9279 13.3026 23.0084 12.9131 23.0014C12.3956 23.0014 11.9586 22.8979 11.5992 22.6909C11.2404 22.4808 10.9541 22.1665 10.7784 21.7896C10.5915 21.3986 10.4995 20.9314 10.4995 20.3866V19.6708C10.4995 19.1259 10.5944 18.6573 10.7827 18.2649C10.9696 17.871 11.2441 17.5677 11.6035 17.3549C11.9657 17.1408 12.4028 17.0344 12.9131 17.0344C13.2279 17.0344 13.5183 17.0804 13.7856 17.1738C14.0544 17.2629 14.2888 17.3938 14.4886 17.5648C14.6904 17.7365 14.8542 17.9485 14.9696 18.1871C15.0849 18.4257 15.1492 18.6857 15.1584 18.9506V19.0555H14.0587C14.0453 18.8623 13.9862 18.6751 13.8862 18.5093C13.7923 18.3506 13.6565 18.2208 13.4938 18.1341C13.3184 18.0388 13.1213 17.9908 12.9217 17.9946C12.679 17.9883 12.4404 18.0576 12.2389 18.193C12.0418 18.3372 11.8913 18.5362 11.8062 18.7651Z" fill="#008DD2"/>
</svg>
