<svg width="61" height="61" viewBox="0 0 61 61" fill="none" xmlns="http://www.w3.org/2000/svg">
<g clip-path="url(#clip0_27_30)">
<path d="M57.8913 6.49646C57.8913 5.41599 57.0153 4.5399 55.9347 4.5399H37.9896C37.1819 2.26271 35.0071 0.626892 32.4566 0.626892C29.9059 0.626892 27.7312 2.26271 26.9235 4.5399H20.7174C13.1656 4.5399 7.02171 10.6838 7.02171 18.2356V32.2678C4.74441 33.0754 3.1087 35.2502 3.1087 37.8008V49.5399C3.1087 50.6204 3.98468 51.4965 5.06527 51.4965H12.8914C13.9719 51.4965 14.848 50.6205 14.848 49.5399V37.8008C14.848 35.2501 13.2121 33.0754 10.935 32.2678V18.2356C10.935 12.8415 15.3234 8.45302 20.7175 8.45302H26.9237C27.5142 10.1179 28.8353 11.4391 30.5002 12.0296V16.4195C23.8719 17.3718 18.7611 23.0873 18.7611 29.9749V58.6706C18.7611 59.751 19.6371 60.6271 20.7176 60.6271H44.1957C45.2762 60.6271 46.1523 59.7511 46.1523 58.6706V29.9749C46.1523 23.0873 41.0415 17.3718 34.4131 16.4195V12.0295C36.0532 11.4478 37.3605 10.1574 37.9636 8.52744C44.4043 9.10728 50.0408 13.1684 52.5955 19.2083C53.0168 20.2044 54.1657 20.6688 55.1595 20.2481C56.1547 19.8271 56.6203 18.6792 56.1993 17.684C54.5913 13.8822 51.984 10.7218 48.7582 8.45302H55.9348C57.0153 8.45302 57.8913 7.57693 57.8913 6.49646ZM10.9347 47.5835H7.02171V37.8009C7.02171 36.722 7.89945 35.8443 8.97827 35.8443C10.0571 35.8443 10.9348 36.722 10.9348 37.8009V47.5835H10.9347ZM42.2391 56.7139H22.6739V47.5835H42.239V56.7139H42.2391ZM42.2391 43.6703H22.6739V35.8442H42.239V43.6703H42.2391ZM42.2391 29.9747V31.9313H22.6739V29.9747C22.6739 24.5806 27.0623 20.1922 32.4564 20.1922C37.8506 20.1922 42.2391 24.5806 42.2391 29.9747ZM32.4566 8.45302C31.3777 8.45302 30.5 7.57529 30.5 6.49646C30.5 5.41763 31.3777 4.5399 32.4566 4.5399C33.5354 4.5399 34.4131 5.41763 34.4131 6.49646C34.4131 7.57529 33.5354 8.45302 32.4566 8.45302Z" fill="#FF4E00"/>
</g>
<defs>
<clipPath id="clip0_27_30">
<rect width="60" height="60" fill="white" transform="translate(0.5 0.626892)"/>
</clipPath>
</defs>
</svg>
