<svg width="57" height="55" viewBox="0 0 57 55" fill="none" xmlns="http://www.w3.org/2000/svg">
<g clip-path="url(#clip0_27_74)">
<path d="M28.5 0.626953C16.4381 0.626953 6.625 10.0896 6.625 21.7207C6.625 28.4078 9.87037 34.6174 15.375 38.5965V41.9707V52.0957C15.375 53.4936 16.5503 54.627 18 54.627H39C40.4497 54.627 41.625 53.4936 41.625 52.0957V41.9707V38.5965C47.1296 34.6174 50.375 28.4078 50.375 21.7207C50.375 10.0896 40.5619 0.626953 28.5 0.626953ZM36.375 49.5645H20.625V44.502H36.375V49.5645ZM37.5662 35.1596C36.8232 35.6267 36.375 36.4244 36.375 37.2798V39.4395H31.125V29.3145H33.75C35.1997 29.3145 36.375 28.1811 36.375 26.7832C36.375 25.3853 35.1997 24.252 33.75 24.252H23.25C21.8003 24.252 20.625 25.3853 20.625 26.7832C20.625 28.1811 21.8003 29.3145 23.25 29.3145H25.875V39.4395H20.625V37.28C20.625 36.4246 20.1768 35.6269 19.4338 35.1598C14.7007 32.1834 11.875 27.1595 11.875 21.7207C11.875 12.8811 19.333 5.68945 28.5 5.68945C37.667 5.68945 45.125 12.8811 45.125 21.7207C45.125 27.1595 42.2991 32.1834 37.5662 35.1596Z" fill="#F3DB5D"/>
</g>
<defs>
<clipPath id="clip0_27_74">
<rect width="56" height="54" fill="white" transform="translate(0.5 0.626953)"/>
</clipPath>
</defs>
</svg>
