<svg width="61" height="61" viewBox="0 0 61 61" fill="none" xmlns="http://www.w3.org/2000/svg">
<g clip-path="url(#clip0_27_91)">
<path d="M56.4505 23.6831H54.1432C53.5218 12.8659 45.6085 3.97059 35.2552 1.852C34.9443 1.1316 34.2279 0.626953 33.3933 0.626953H27.6065C26.7719 0.626953 26.0558 1.1316 25.7447 1.852C15.3917 3.97059 7.4784 12.8659 6.85698 23.6831H4.54951C3.42991 23.6831 2.52203 24.5908 2.52203 25.7106V31.8714C2.52203 32.991 3.42971 33.8989 4.54951 33.8989H7.83698V33.8993C7.83698 35.2593 7.95961 36.6138 8.20183 37.9437L5.09072 39.7401C4.62506 40.009 4.28527 40.4516 4.14607 40.9712C4.00688 41.4906 4.07981 42.0439 4.3487 42.5096L9.83779 52.0167C10.3978 52.9861 11.6374 53.3189 12.6073 52.7587L15.7226 50.9601C17.7935 52.7223 20.1729 54.0983 22.7239 55.0082V58.5997C22.7239 59.7193 23.6315 60.6272 24.7513 60.6272H35.7293C36.8489 60.6272 37.7568 59.7195 37.7568 58.5997V55.0082C40.3077 54.0983 42.6871 52.7223 44.7582 50.9601L47.8735 52.7587C48.8436 53.3187 50.0832 52.9861 50.643 52.0167L56.1319 42.5096C56.6919 41.5399 56.3596 40.3001 55.3899 39.7401L52.2788 37.9437C52.5214 36.6138 52.6438 35.2593 52.6438 33.8993V33.8989H56.4513C57.5709 33.8989 58.4788 32.9912 58.4788 31.8714V25.7106C58.478 24.591 57.5701 23.6831 56.4505 23.6831ZM31.3661 4.6817V17.9874H29.6342V4.6817H31.3661ZM16.899 10.9173V20.0148C16.899 21.1344 17.8067 22.0423 18.9265 22.0423C20.0463 22.0423 20.954 21.1346 20.954 20.0148V7.91079C22.394 7.10594 23.9463 6.48029 25.5794 6.05705V20.0148C25.5794 21.1344 26.4871 22.0423 27.6069 22.0423H33.3938C34.5133 22.0423 35.4212 21.1346 35.4212 20.0148V6.05705C37.0544 6.48029 38.6067 7.10594 40.0469 7.91079V20.0148C40.0469 21.1344 40.9546 22.0423 42.0744 22.0423C43.194 22.0423 44.1018 21.1346 44.1018 20.0148V10.9175C47.5063 14.193 49.7297 18.6837 50.0772 23.6831H10.9236C11.2711 18.6835 13.4948 14.193 16.899 10.9173ZM48.5883 33.8991C48.5883 35.4421 48.3964 36.9756 48.018 38.4571C47.7929 39.3375 48.1816 40.2603 48.9685 40.7146L51.6061 42.2375L48.1447 48.233L45.5016 46.7072C44.714 46.2526 43.72 46.3777 43.0701 47.0136C40.8636 49.1722 38.1368 50.7488 35.1838 51.5728C34.3075 51.8173 33.7014 52.6158 33.7014 53.5255V56.5718H26.7782V53.5259C26.7782 52.6162 26.1721 51.8177 25.2958 51.5732C22.3428 50.7492 19.616 49.1726 17.4097 47.0142C16.7598 46.3779 15.7655 46.2532 14.9782 46.7076L12.3352 48.2334L8.87375 42.2377L11.5115 40.7148C12.2986 40.2605 12.6871 39.3379 12.462 38.4573C12.0834 36.9756 11.8917 35.4423 11.8917 33.8993V33.8989H18.1261V33.8993C18.1261 40.5789 23.5602 46.0132 30.24 46.0132C36.9198 46.0132 42.354 40.5791 42.354 33.8993V33.8989H48.5883V33.8991ZM32.6703 33.8991C32.6703 35.2393 31.58 36.3296 30.2398 36.3296C28.8996 36.3296 27.8093 35.2393 27.8093 33.8991V33.8987H32.6703V33.8991ZM30.2398 40.3843C33.8158 40.3843 36.7251 37.475 36.7251 33.8991V33.8987H38.299V33.8991C38.299 38.3429 34.6837 41.9581 30.2398 41.9581C25.796 41.9581 22.1808 38.3429 22.1808 33.8991V33.8987H23.7546V33.8991C23.7546 37.475 26.6639 40.3843 30.2398 40.3843ZM54.4232 29.8439H6.57678V27.7379H54.4232V29.8439Z" fill="#657AED"/>
</g>
<defs>
<clipPath id="clip0_27_91">
<rect width="60" height="60" fill="white" transform="translate(0.5 0.626953)"/>
</clipPath>
</defs>
</svg>
