<svg width="57" height="59" viewBox="0 0 57 59" fill="none" xmlns="http://www.w3.org/2000/svg">
<g clip-path="url(#clip0_27_22)">
<path d="M45.7765 27.0168C44.585 27.0168 43.7907 26.2222 43.7907 25.0303C43.7907 23.0438 41.4077 21.2559 37.0389 21.2559H34.2588C28.3014 21.2559 23.5354 16.4882 23.5354 10.5286V1.98653C23.5354 0.794613 24.3297 0 25.5212 0C26.7127 0 27.507 0.794613 27.507 1.98653V10.7273C27.507 14.5017 30.4858 17.4815 34.2588 17.4815H37.2375C44.585 17.4815 47.9609 21.4545 47.9609 25.229C47.7623 26.2222 46.968 27.0168 45.7765 27.0168Z" fill="#FFA841"/>
<path d="M54.5142 59H2.48582C1.29433 59 0.5 58.2054 0.5 57.0135V45.4916C0.5 44.8956 0.698582 44.2997 1.09574 43.9024L11.2234 35.1616C11.8191 34.5657 12.8121 34.5657 13.6064 34.963L24.1312 41.5185L34.656 34.963C35.2518 34.5657 36.2447 34.5657 36.8404 34.963L43.7908 39.9293V30.7912C43.7908 29.5993 44.5851 28.8047 45.7766 28.8047H54.5142C55.7057 28.8047 56.5 29.5993 56.5 30.7912V56.8148C56.5 58.0067 55.7057 59 54.5142 59ZM47.7624 55.0269H52.5284V32.9764H47.7624V43.9024V55.0269ZM4.47163 55.0269H43.7908V45.0943L35.6489 39.1347L25.1241 45.6902C24.5284 46.0875 23.734 46.0875 22.9397 45.6902L12.6135 39.1347L4.47163 46.2862V55.0269Z" fill="#FFA841"/>
<path d="M54.5141 27.0169C53.3227 27.0169 52.5283 26.2222 52.5283 25.0303C52.5283 12.3165 45.7766 10.1313 43.5922 9.73402C43.195 9.73402 42.7978 9.73402 42.5992 9.73402C41.6063 9.53537 40.812 8.74076 40.812 7.54884C40.812 6.55557 41.8049 5.76096 42.7978 5.76096C42.7978 5.76096 43.195 5.76096 43.5922 5.76096C45.578 5.95961 49.5496 5.76096 51.3368 4.17173C51.9326 3.57577 52.3297 2.78116 52.3297 1.78789C52.3297 0.595974 53.1241 -0.198639 54.3156 -0.198639C55.507 -0.198639 56.3014 0.595974 56.3014 1.78789C56.3014 3.97308 55.507 5.76096 53.9184 7.15153C52.9255 7.94614 51.734 8.5421 50.5425 8.93941C53.5212 11.5219 56.3014 16.2896 56.3014 25.0303C56.5 26.2222 55.7056 27.0169 54.5141 27.0169Z" fill="#FFA841"/>
</g>
<defs>
<clipPath id="clip0_27_22">
<rect width="56" height="59" fill="white" transform="translate(0.5)"/>
</clipPath>
</defs>
</svg>
