<svg width="65" height="66" viewBox="0 0 65 66" fill="none" xmlns="http://www.w3.org/2000/svg">
<g clip-path="url(#clip0_27_52)">
<path d="M32.5 0.126953C14.5795 0.126953 0 14.7062 0 32.627C0 50.5477 14.5795 65.127 32.5 65.127C50.4204 65.127 65 50.5477 65 32.627C65 14.7062 50.4204 0.126953 32.5 0.126953ZM32.5 59.8567C17.4855 59.8567 5.27021 47.6414 5.27021 32.627C5.27021 17.6125 17.4855 5.39716 32.5 5.39716C47.5145 5.39716 59.7298 17.6125 59.7298 32.627C59.7298 47.6414 47.5145 59.8567 32.5 59.8567Z" fill="#4ECA74"/>
<path d="M39.3323 15.1293L32.5 8.29727L25.6678 15.1295C16.4208 24.3765 16.4208 39.4222 25.6678 48.6694L29.8649 52.8663V56.7437H35.1352V52.8663L39.3323 48.6693C48.5793 39.4221 48.5793 24.3764 39.3323 15.1293ZM35.6057 44.9425L35.1352 45.413V36.8682H29.8649V45.413L29.3944 44.9425C22.2024 37.7505 22.2024 26.048 29.3944 18.856L32.5 15.7504L35.6057 18.8561C42.7976 26.0481 42.7976 37.7505 35.6057 44.9425Z" fill="#4ECA74"/>
</g>
<defs>
<clipPath id="clip0_27_52">
<rect width="65" height="65" fill="white" transform="translate(0 0.126953)"/>
</clipPath>
</defs>
</svg>
