<svg width="18" height="18" viewBox="0 0 18 18" fill="none" xmlns="http://www.w3.org/2000/svg">
<path d="M1.92773 6.50884L8.77673 10.0709C8.84544 10.1066 8.92173 10.1253 8.99916 10.1253C9.0766 10.1253 9.15289 10.1066 9.22159 10.0709L16.0706 6.50949V12.697C16.0706 13.2306 15.8664 13.7441 15.4999 14.132C15.1334 14.5199 14.6324 14.7528 14.0996 14.7831L13.9813 14.7863H4.01702C3.48336 14.7863 2.96992 14.5821 2.58201 14.2156C2.19411 13.8491 1.96116 13.3481 1.93095 12.8153L1.92773 12.697V6.50884ZM4.01702 3.21484H13.9813C14.515 3.21481 15.0284 3.41899 15.4163 3.78549C15.8042 4.15199 16.0372 4.65304 16.0674 5.18584L16.0706 5.30413V5.42242L8.99916 9.09956L1.92773 5.42242V5.30413C1.9277 4.77047 2.13188 4.25703 2.49838 3.86912C2.86488 3.48122 3.36593 3.24827 3.89873 3.21806L4.01702 3.21484H13.9813H4.01702Z" fill="white"/>
</svg>
