<svg width="13" height="13" viewBox="0 0 13 13" fill="none" xmlns="http://www.w3.org/2000/svg">
<path d="M12.6325 9.54069L10.8183 7.7265C10.1704 7.07858 9.06894 7.33777 8.80977 8.18005C8.61539 8.76321 7.96747 9.08717 7.38434 8.95756C6.08849 8.6336 4.33909 6.94899 4.01513 5.58835C3.82075 5.00519 4.20951 4.35727 4.79264 4.16292C5.63494 3.90375 5.89411 2.80227 5.24618 2.15435L3.432 0.34016C2.91366 -0.113387 2.13615 -0.113387 1.6826 0.34016L0.451543 1.57122C-0.779513 2.86707 0.581128 6.30107 3.62637 9.34631C6.67162 12.3916 10.1056 13.817 11.4015 12.5211L12.6325 11.2901C13.0861 10.7717 13.0861 9.99424 12.6325 9.54069Z" fill="#FEFEFE"/>
</svg>
