<svg width="14" height="12" viewBox="0 0 14 12" fill="none" xmlns="http://www.w3.org/2000/svg">
<g clip-path="url(#clip0_20_1969)">
<path d="M12.9836 0.13376L0.548999 4.97247C0.548999 4.97247 -0.0409143 5.17063 0.00553556 5.53929C0.0519855 5.90795 0.530419 6.07846 0.530419 6.07846L3.6565 7.12454L3.66114 7.12915V7.12454L11.1674 2.39182C11.1674 2.39182 11.5994 2.12915 11.5855 2.39182C11.5855 2.39182 11.6645 2.43791 11.4322 2.6545C11.2 2.87109 5.53307 7.92178 5.53307 7.92178L5.52378 8.01855L10.624 11.8987C11.474 12.2674 11.7852 11.4978 11.7852 11.4978L14.0009 0.424083C14.0009 -0.313245 12.979 0.13376 12.9836 0.13376Z" fill="white"/>
<path d="M7.47439 9.50267L5.45382 11.3322C5.45382 11.3322 5.29589 11.452 5.12402 11.3782L5.50956 7.98193" fill="white"/>
</g>
<defs>
<clipPath id="clip0_20_1969">
<rect width="14" height="12" fill="white"/>
</clipPath>
</defs>
</svg>
