<svg width="121" height="69" viewBox="0 0 121 69" fill="none" xmlns="http://www.w3.org/2000/svg">
<g clip-path="url(#clip0_6_8)">
<path fill-rule="evenodd" clip-rule="evenodd" d="M8.6699 25.8803C8.8762 25.1107 9.40911 24.6265 10.3364 24.4868C15.5872 23.5971 19.757 20.5498 24.4674 18.5813C30.3843 15.4837 39.0718 12.6149 44.5159 12.9336C50.4028 15.4361 53.9478 24.8611 58.6636 30.825L65.0593 41.1638C84.5715 37.8788 102.847 32.4152 120.317 25.5342C121.147 25.1892 121.097 25.4437 120.813 26.2767L112.118 48.9578C111.936 49.4153 111.548 49.7752 110.856 49.9928C100.357 54.0472 90.226 56.5583 80.688 58.2902L57.4928 61.6616C43.5249 65.9956 32.3964 60.2943 33.3066 49.1201L34.8379 38.1521C35.0032 37.3124 34.733 36.9977 34.0273 37.2081C22.8931 39.7121 12.4477 44.5632 1.23855 48.356C-0.0266446 48.8626 -0.285581 48.8066 0.292716 47.5469L8.67004 25.8804L8.6699 25.8803Z" fill="#008DD2"/>
<path fill-rule="evenodd" clip-rule="evenodd" d="M25.5854 40.0341C25.6993 40.0114 33.8109 37.7581 33.8109 37.7581L33.9529 38.1694L33.1817 44.6382L32.8741 46.6446C46.0841 42.6524 54.8822 33.917 53.9197 22.6127L50.0474 17.0382C36.335 15.8621 27.5426 28.9265 24.0137 40.4664L25.5853 40.0341L25.5854 40.0341Z" fill="#C5C6C6"/>
<path fill-rule="evenodd" clip-rule="evenodd" d="M28.8151 52.5128H19.1288C18.5169 52.3197 18.4043 51.3785 18.6332 49.9253C19.2524 46.1427 19.9496 43.4435 22.0572 43.423V42.1849H21.788C21.0564 42.1849 20.4578 41.5876 20.4578 40.8573C20.4578 40.1272 21.0564 39.5298 21.788 39.5298H23.9812C28.8613 20.9223 46.3335 3.07444 64.744 0.00012207C56.8438 6.6277 50.9285 12.4141 51.3223 18.1037C47.8305 17.8063 45.0192 18.8412 43.0292 21.484C46.1059 19.2461 49.3009 19.2517 50.4854 20.9664C48.0213 19.9039 42.0412 26.9096 35.8287 35.5897C32.7551 35.5015 27.5226 34.1597 24.5761 39.5297H26.2459C26.9775 39.5297 27.5761 40.1271 27.5761 40.8573C27.5761 41.5875 26.9776 42.1849 26.2459 42.1849H25.9091V43.4233C28.0605 43.4801 28.9545 46.068 29.4908 50.3303C29.5261 51.5702 29.5472 52.258 28.815 52.5128H28.8151Z" fill="#2B2A29"/>
<path fill-rule="evenodd" clip-rule="evenodd" d="M34.8521 45.0114C33.6438 44.3898 33.0044 45.3875 33.4555 46.294C35.0247 50.904 35.2061 54.2684 43.1559 57.3766C45.0306 58.1096 46.9483 58.7034 48.8245 59.4433C55.8194 62.2019 62.8384 65.0812 69.9367 68.3562C71.3497 69.456 73.7422 69.1804 73.1692 67.2761C73.6549 67.2923 74.0243 66.8784 74.4028 66.4981C74.6688 66.2308 74.9372 66.0048 75.1874 65.7196C77.5801 62.991 79.9866 60.345 82.4056 57.7742C84.0916 59.0387 85.4863 60.4004 86.0995 62.0222C86.8981 59.9346 86.9836 57.6198 86.1902 56.7325C88.5529 56.6288 90.1343 56.9655 90.785 57.8819C90.4994 56.4228 88.8808 54.7075 87.0435 52.9503C89.5817 50.3664 92.1328 47.8589 94.6951 45.4195L50.5563 26.066L36.3614 40.9837C35.0865 42.2517 34.2631 43.5633 34.8521 45.0113V45.0114Z" fill="#2B2A29"/>
<path fill-rule="evenodd" clip-rule="evenodd" d="M63.9844 0.344238C44.7036 4.79997 29.5825 21.7254 24.2114 39.5016H24.4282C26.2797 35.1433 29.676 34.4448 35.6687 35.3276C40.6094 28.2192 46.2203 20.9345 49.7418 20.6514C48.9498 19.5714 45.6984 19.9689 42.2968 22.1141C43.8969 19.1044 47.5391 17.4413 50.9638 17.732C51.1826 11.4064 55.5137 7.32336 63.9844 0.344238Z" fill="#FEFEFE"/>
<path fill-rule="evenodd" clip-rule="evenodd" d="M41.5874 35.9435C40.6448 37.3305 33.4929 42.9488 35.2576 45.1014L68.9569 58.3319L68.7317 58.782L43.5698 48.904C41.985 48.9905 45.1836 57.9235 49.5393 59.277L69.3399 67.6248C71.2829 69.3007 73.438 69.2079 72.9441 66.9949C73.571 67.2723 73.9502 66.4248 74.4533 66.1398L82.191 57.7244C82.037 57.5256 81.8305 57.3718 81.5715 57.2631C78.228 60.3017 75.0142 63.7837 71.7806 67.1982C70.4516 66.0832 69.4372 63.5496 69.0018 60.6045C68.7135 59.9828 68.9069 59.6997 69.4298 59.6481L71.8626 57.443L81.5717 47.1938L70.7341 45.5542L41.5874 35.9434V35.9435Z" fill="#9D9E9E" stroke="#2B2A29" stroke-width="0.0761719" stroke-miterlimit="22.9256"/>
<path fill-rule="evenodd" clip-rule="evenodd" d="M37.5554 46.4178L34.2778 45.0002C33.7246 45.0784 33.3645 45.6642 33.6695 46.3053C35.2466 50.8448 35.8882 54.3436 42.4323 56.5994C39.8065 55.3159 36.3069 47.6641 37.5554 46.4177V46.4178Z" fill="#9D9E9E" stroke="#2B2A29" stroke-width="0.0761719" stroke-miterlimit="22.9256"/>
<path fill-rule="evenodd" clip-rule="evenodd" d="M86.2069 52.386L91.1232 47.2501H92.6663L86.9333 52.8416C86.7344 52.6136 86.524 52.3972 86.2068 52.386H86.2069Z" fill="#9D9E9E" stroke="#2B2A29" stroke-width="0.0761719" stroke-miterlimit="22.9256"/>
<path fill-rule="evenodd" clip-rule="evenodd" d="M38.6366 26.3581L45.7775 50.5692C45.799 52.7546 46.1989 53.529 49.0438 52.628L66.7946 49.1742C66.7012 50.0893 67.3309 50.4864 68.6192 50.4117L77.5396 50.0517C79.1026 49.926 79.8174 48.8723 79.0714 47.8691C85.1994 47.9186 92.1583 47.1558 98.4215 47.1716C99.2682 47.7632 100.999 47.5494 99.9308 45.7765L90.8751 26.7182C90.3147 25.3888 89.6934 24.62 88.9829 24.6706L87.744 21.7005C81.9397 23.3955 67.9808 17.2378 65.9384 21.9929C58.8275 17.5565 51.0859 25.5407 42.7811 22.5218L41.9346 23.7577C41.7397 24.0422 41.6653 24.0956 41.2965 24.1169C40.1414 24.1834 37.8751 23.6381 38.6366 26.3581Z" fill="#2B2A29" stroke="#2B2A29" stroke-width="0.0761719" stroke-miterlimit="22.9256"/>
<path fill-rule="evenodd" clip-rule="evenodd" d="M48.2666 50.3779C49.4342 49.5154 50.0837 47.7754 50.9923 46.474C58.9012 48.0145 72.6453 36.5595 73.6538 47.3628C72.2384 47.4004 70.8379 47.5729 69.4526 47.8804C69.2316 46.4326 68.5721 45.9761 67.6866 46.0305C67.5417 46.0394 67.3907 46.0621 67.2346 46.0962C66.628 46.229 66.1708 46.5302 65.6159 46.7869C65.2486 46.9569 64.8365 47.1269 64.3877 47.2952C59.9403 48.9638 51.8943 50.4796 48.2667 50.3779L48.2666 50.3779Z" fill="#FEFEFE" stroke="#2B2A29" stroke-width="0.0761719" stroke-miterlimit="22.9256"/>
<path fill-rule="evenodd" clip-rule="evenodd" d="M73.8513 47.3627L77.3147 47.3347C78.607 44.035 81.6368 46.2049 84.23 46.2773C89.0156 46.4115 93.7521 46.2499 98.4665 45.9565L97.1375 42.6826C92.2943 45.0077 86.3248 42.3825 81.1212 42.03C75.5055 41.3851 73.1258 43.6951 73.8513 47.3627Z" fill="#FEFEFE" stroke="#2B2A29" stroke-width="0.0761719" stroke-miterlimit="22.9256"/>
<path fill-rule="evenodd" clip-rule="evenodd" d="M51.15 46.204C58.5575 47.5109 68.7131 38.4674 73.0345 44.1845L65.9841 22.7315C65.8832 22.4245 65.8603 22.3709 65.5867 22.1937C59.1263 18.0116 50.2957 26.1123 43.0403 22.9155C45.6205 30.7766 48.2692 38.583 51.1499 46.204H51.15Z" fill="#FEFEFE" stroke="#2B2A29" stroke-width="0.0761719" stroke-miterlimit="22.9256"/>
<path fill-rule="evenodd" clip-rule="evenodd" d="M73.5693 44.8258C75.1818 37.2224 91.7292 45.8196 96.991 42.4013L87.6199 22.0718C82.3668 23.0584 77.435 21.1572 71.7655 20.5715C70.9081 20.4829 70.1293 20.4606 69.2705 20.5409C68.1307 20.6474 66.754 20.9197 66.289 21.8065C66.1282 22.1131 66.1887 22.2278 66.2906 22.5395L73.5693 44.8259V44.8258Z" fill="#FEFEFE" stroke="#2B2A29" stroke-width="0.0761719" stroke-miterlimit="22.9256"/>
<path fill-rule="evenodd" clip-rule="evenodd" d="M42.5871 23.2281C41.986 24.2426 41.3337 25.096 40.5682 25.5943C40.3705 25.723 40.4079 25.7056 40.4792 25.9358L47.9849 50.2204C48.8973 49.8701 49.8927 47.7535 50.617 46.5248C50.7425 46.3118 50.7004 46.2881 50.6186 46.051L42.7768 23.2996C42.6958 23.0645 42.7281 22.9903 42.5872 23.2282L42.5871 23.2281Z" fill="#FEFEFE" stroke="#2B2A29" stroke-width="0.0761719" stroke-miterlimit="22.9256"/>
<path fill-rule="evenodd" clip-rule="evenodd" d="M38.4429 46.7221L43.232 48.6791C42.7319 48.8711 42.52 49.2358 42.6489 49.823C42.7062 50.0839 42.8117 50.3469 42.9504 50.783C44.2417 54.3751 45.1282 57.1887 47.9848 58.7708C43.8699 57.548 41.2645 55.8383 40.033 53.6856C38.5288 50.3148 37.1116 47.6703 37.7123 46.7937C37.9464 46.4522 38.1327 46.5954 38.4429 46.7221Z" fill="#FEFEFE" stroke="#2B2A29" stroke-width="0.0761719" stroke-miterlimit="22.9256"/>
<path fill-rule="evenodd" clip-rule="evenodd" d="M83.5266 50.8953C84.5046 51.1034 85.3625 51.5215 86.1002 52.1497L91.0557 47.1039L87.1699 47.3626L83.5266 50.8953Z" fill="#FEFEFE" stroke="#2B2A29" stroke-width="0.0761719" stroke-miterlimit="22.9256"/>
<path fill-rule="evenodd" clip-rule="evenodd" d="M82.4956 50.7829L85.7564 47.476L86.6854 47.4864L83.2005 50.9014C83.0012 50.83 82.785 50.7492 82.4956 50.7829Z" fill="#FEFEFE" stroke="#2B2A29" stroke-width="0.0761719" stroke-miterlimit="22.9256"/>
<path fill-rule="evenodd" clip-rule="evenodd" d="M79.7358 56.1381L70.759 65.1948C70.8999 65.6748 71.3898 66.4698 71.7728 66.8036L81.369 57.0269C80.8021 56.7981 80.2577 56.5018 79.7358 56.1381V56.1381Z" fill="#FEFEFE" stroke="#2B2A29" stroke-width="0.0761719" stroke-miterlimit="22.9256"/>
<path fill-rule="evenodd" clip-rule="evenodd" d="M78.8144 55.5928L79.477 56.0145L70.6242 64.9811C70.491 64.7795 70.2844 64.2798 70.2412 64.0305L78.8144 55.5928Z" fill="#FEFEFE" stroke="#2B2A29" stroke-width="0.0761719" stroke-miterlimit="22.9256"/>
<path fill-rule="evenodd" clip-rule="evenodd" d="M69.981 63.0253C70.0008 63.2718 70.0671 63.5231 70.162 63.7772L78.6319 55.4518C78.3354 55.4301 78.0169 55.4253 77.8606 55.2944L69.981 63.0253Z" fill="#FEFEFE" stroke="#2B2A29" stroke-width="0.0761719" stroke-miterlimit="22.9256"/>
<path fill-rule="evenodd" clip-rule="evenodd" d="M81.5492 47.9816C82.5966 48.1092 83.8581 47.9516 85.266 47.599L69.8412 62.8097C69.5815 62.1547 69.449 61.1528 69.2045 60.4114C69.0497 59.9419 69.0758 60.0031 69.4767 59.7386C70.792 58.8711 72.2462 57.5951 73.2185 56.535C76.0828 53.4117 78.8373 50.4826 81.5492 47.9815L81.5492 47.9816Z" fill="#FEFEFE" stroke="#2B2A29" stroke-width="0.0761719" stroke-miterlimit="22.9256"/>
<path fill-rule="evenodd" clip-rule="evenodd" d="M82.2701 50.918C84.9659 51.213 87.466 52.9881 90.3008 57.117C89.1369 56.4981 87.6877 56.3144 85.9532 56.5657C86.1964 57.2796 86.5021 57.9365 86.5547 58.7122C86.6124 59.5642 86.3918 60.5432 86.0769 61.5159C84.9387 58.7782 81.7373 56.7232 78.2603 55.0806L82.2701 50.918H82.2701Z" fill="#5B5B5B" stroke="#2B2A29" stroke-width="0.0761719" stroke-miterlimit="22.9256"/>
<path d="M63.4806 3.55756H67.5901L69.8391 10.9709L76.0074 3.55756H79.9805L69.1157 15.789C68.1938 16.8209 67.4124 17.4977 66.7716 17.8225C66.1307 18.1473 65.3659 18.3064 64.4894 18.3064C63.5345 18.3064 62.7613 18.2353 62.1619 18.0898L62.6084 15.789C63.1582 15.877 63.6296 15.9175 64.014 15.9175C64.4771 15.9175 64.9649 15.8431 65.4858 15.6909C66.0068 15.5386 66.6559 14.9397 67.4289 13.8976L63.4807 3.55756H63.4806ZM81.9401 3.55756H85.5617L83.9617 9.72234C84.648 9.72234 85.1813 9.60724 85.5617 9.37046C85.942 9.13701 86.5291 8.45351 87.327 7.32342C88.1786 6.12904 88.8319 5.3034 89.2908 4.85004C89.7496 4.4 90.2706 4.06844 90.8535 3.86541C91.4365 3.65905 92.317 3.5575 93.4953 3.5575H94.4628L93.6648 5.73983H93.0695C92.6271 5.73983 92.284 5.79735 92.0483 5.91584C91.8085 6.03426 91.5358 6.32523 91.2298 6.78876C90.2665 8.23685 89.5017 9.21133 88.927 9.71211C88.3523 10.2162 87.728 10.5376 87.0501 10.6764C88.2613 10.991 89.0634 11.864 89.4603 13.2919C89.4851 13.3697 89.5098 13.4475 89.5347 13.5185L91.1305 18.0897H87.3765L85.8882 13.5897C85.8716 13.5356 85.7311 13.2209 85.4624 12.6389C85.1399 12.0772 84.4578 11.7896 83.416 11.7761L81.7581 18.0897H78.1489L81.94 3.5575L81.9401 3.55756ZM97.1872 3.55756H100.809L99.2089 9.72234C99.8952 9.72234 100.428 9.60724 100.809 9.37046C101.189 9.13701 101.776 8.45351 102.574 7.32342C103.426 6.12904 104.079 5.3034 104.538 4.85004C104.997 4.4 105.518 4.06844 106.101 3.86541C106.684 3.65905 107.564 3.5575 108.742 3.5575H109.71L108.912 5.73983H108.317C107.874 5.73983 107.531 5.79735 107.295 5.91584C107.056 6.03426 106.783 6.32523 106.477 6.78876C105.514 8.23685 104.749 9.21133 104.174 9.71211C103.599 10.2162 102.975 10.5376 102.297 10.6764C103.508 10.991 104.311 11.864 104.707 13.2919C104.732 13.3697 104.757 13.4475 104.782 13.5185L106.378 18.0897H102.624L101.135 13.5897C101.119 13.5356 100.978 13.2209 100.71 12.6389C100.387 12.0772 99.705 11.7896 98.6631 11.7761L97.0053 18.0897H93.3961L97.1872 3.5575L97.1872 3.55756Z" fill="#2B2A29"/>
</g>
<defs>
<clipPath id="clip0_6_8">
<rect width="121" height="69" fill="white"/>
</clipPath>
</defs>
</svg>
