<svg width="14" height="14" viewBox="0 0 14 14" fill="none" xmlns="http://www.w3.org/2000/svg">
<path d="M13.4734 12.5267L11.0001 10.0734C11.9601 8.87633 12.4251 7.35692 12.2993 5.82759C12.1735 4.29826 11.4665 2.87525 10.3237 1.85115C9.18097 0.827062 7.68926 0.279732 6.15534 0.321705C4.62142 0.363679 3.16187 0.991766 2.07682 2.07682C0.991766 3.16187 0.363679 4.62142 0.321705 6.15534C0.279732 7.68926 0.827062 9.18097 1.85115 10.3237C2.87525 11.4665 4.29826 12.1735 5.82759 12.2993C7.35692 12.4251 8.87633 11.9601 10.0734 11.0001L12.5267 13.4534C12.5887 13.5159 12.6624 13.5655 12.7437 13.5993C12.8249 13.6332 12.9121 13.6506 13.0001 13.6506C13.0881 13.6506 13.1752 13.6332 13.2564 13.5993C13.3377 13.5655 13.4114 13.5159 13.4734 13.4534C13.5936 13.3291 13.6607 13.163 13.6607 12.9901C13.6607 12.8172 13.5936 12.651 13.4734 12.5267ZM6.33339 11.0001C5.41041 11.0001 4.50816 10.7264 3.74073 10.2136C2.9733 9.7008 2.37516 8.97197 2.02195 8.11925C1.66874 7.26653 1.57633 6.32821 1.75639 5.42297C1.93646 4.51773 2.38091 3.6862 3.03356 3.03356C3.6862 2.38091 4.51773 1.93646 5.42297 1.75639C6.32821 1.57633 7.26653 1.66874 8.11925 2.02195C8.97197 2.37516 9.7008 2.9733 10.2136 3.74073C10.7264 4.50816 11.0001 5.41041 11.0001 6.33339C11.0001 7.57107 10.5084 8.75805 9.63322 9.63322C8.75805 10.5084 7.57107 11.0001 6.33339 11.0001Z" fill="#1393E2"/>
</svg>
