<svg width="16" height="16" viewBox="0 0 16 16" fill="none" xmlns="http://www.w3.org/2000/svg">
<g clip-path="url(#clip0_6_50)">
<path d="M14.8375 1.11675L0.626521 6.79417C0.626521 6.79417 -0.0476661 7.02667 0.00541955 7.45924C0.0585051 7.8918 0.605287 8.09186 0.605287 8.09186L4.17795 9.31927L4.18326 9.32467V9.31927L12.7619 3.76621C12.7619 3.76621 13.2556 3.45801 13.2397 3.76621C13.2397 3.76621 13.3299 3.82028 13.0645 4.07441C12.799 4.32854 6.32261 10.2547 6.32261 10.2547L6.31199 10.3682L12.1408 14.921C13.1123 15.3536 13.4679 14.4506 13.4679 14.4506L16.0001 1.45739C16.0001 0.592261 14.8322 1.11675 14.8375 1.11675Z" fill="#1393E2"/>
<path d="M8.54148 12.1093L6.23225 14.2559C6.23225 14.2559 6.05176 14.3965 5.85535 14.31L6.29596 10.325" fill="#1393E2"/>
</g>
<defs>
<clipPath id="clip0_6_50">
<rect width="16" height="14.08" fill="white" transform="translate(0 0.959961)"/>
</clipPath>
</defs>
</svg>
